<?xml version="1.0" standalone="no"?>
<!DOCTYPE svg PUBLIC "-//W3C//DTD SVG 20010904//EN"
 "http://www.w3.org/TR/2001/REC-SVG-20010904/DTD/svg10.dtd">
<svg version="1.0" xmlns="http://www.w3.org/2000/svg"
 width="1011.000000pt" height="732.000000pt" viewBox="0 0 1011.000000 732.000000"
 preserveAspectRatio="xMidYMid meet">

<g transform="translate(0.000000,732.000000) scale(0.100000,-0.100000)"
fill="#000000" stroke="none">
<path d="M6530 5586 c-31 -6 -71 -21 -90 -33 -19 -12 -57 -34 -84 -49 -57 -30
-174 -145 -226 -221 -134 -197 -153 -228 -157 -262 -5 -39 4 -53 45 -65 15 -5
22 -3 22 6 0 7 6 25 14 39 7 14 16 37 20 52 9 38 72 143 99 164 13 10 43 48
67 86 24 37 48 67 52 67 4 0 40 26 80 58 55 45 90 64 144 80 l72 22 117 -30
c64 -16 133 -39 153 -50 21 -11 62 -29 92 -41 59 -22 147 -68 191 -100 15 -10
31 -19 36 -19 4 0 28 -14 53 -30 25 -16 66 -37 92 -46 26 -8 69 -34 95 -58 26
-23 60 -50 75 -59 16 -10 43 -47 63 -87 19 -39 39 -70 44 -70 8 0 81 -151 81
-168 0 -4 11 -31 24 -59 14 -27 28 -67 32 -89 3 -21 19 -64 34 -94 53 -104
100 -208 100 -219 0 -14 40 -98 69 -144 11 -19 32 -63 45 -98 13 -35 49 -112
80 -171 30 -59 64 -138 76 -175 11 -37 31 -86 44 -108 13 -22 40 -85 60 -140
21 -55 47 -120 58 -145 12 -25 36 -94 54 -155 18 -60 46 -148 64 -195 45 -123
54 -154 71 -245 5 -27 14 -75 20 -105 5 -30 12 -73 14 -95 2 -22 6 -51 8 -65
3 -14 10 -128 17 -255 15 -279 3 -543 -27 -597 -27 -50 -74 -98 -118 -120 -22
-12 -56 -35 -77 -52 -28 -24 -174 -103 -309 -167 -9 -4 -34 -10 -55 -14 -22
-3 -70 -14 -109 -23 -59 -14 -126 -17 -435 -17 -458 0 -595 8 -632 35 -29 21
-48 26 -48 11 0 -14 -208 -126 -310 -167 -190 -76 -343 -98 -630 -91 -178 4
-218 8 -307 31 -57 14 -111 30 -120 35 -10 5 -58 28 -108 51 -49 24 -101 48
-115 55 -47 23 -145 83 -160 98 -51 51 -112 133 -144 196 -16 31 -21 33 -55
28 -20 -2 -62 -18 -93 -33 -176 -91 -351 -175 -402 -193 -33 -11 -138 -39
-235 -62 -169 -40 -184 -42 -380 -47 -126 -3 -246 0 -315 8 -109 12 -261 44
-281 60 -5 4 -26 13 -46 19 -20 6 -63 29 -97 51 -34 22 -64 40 -68 40 -3 0
-35 27 -71 60 -35 33 -68 60 -73 60 -4 0 -19 17 -31 38 -12 20 -39 55 -58 77
-32 36 -91 141 -105 187 -8 26 -44 22 -101 -12 -27 -16 -59 -30 -71 -30 -11 0
-24 -4 -30 -9 -22 -22 -214 -53 -354 -58 -127 -5 -157 -3 -235 16 -151 37
-355 118 -355 141 0 5 -25 23 -55 40 -30 17 -63 43 -73 57 -9 14 -34 42 -54
62 -50 49 -101 149 -128 250 -18 71 -21 104 -18 210 5 154 23 214 86 274 24
23 69 67 100 98 31 31 93 80 137 109 44 29 93 64 108 77 16 12 37 23 47 23 10
0 49 11 87 24 168 58 308 95 396 103 65 5 67 5 68 -18 2 -83 35 -171 94 -249
30 -40 47 -55 65 -55 21 0 26 6 28 32 2 24 -2 34 -17 42 -29 16 -75 88 -90
141 -16 53 -16 176 -1 245 13 61 46 137 83 190 15 22 39 57 53 78 13 21 43 54
65 75 22 20 57 53 77 73 53 52 160 122 218 143 27 9 69 26 94 37 178 76 534
98 888 54 163 -20 350 -63 517 -120 81 -27 295 -128 350 -165 17 -11 36 -20
44 -20 8 0 37 -17 65 -39 28 -21 80 -58 116 -82 131 -87 368 -314 397 -379 8
-19 26 -50 39 -67 44 -58 104 -289 104 -399 0 -70 12 -134 25 -134 38 0 44
234 10 370 -24 95 -116 274 -182 357 -56 69 -238 243 -254 243 -12 0 -94 57
-109 76 -8 8 -37 27 -64 41 -28 14 -64 36 -81 48 -29 23 -110 66 -290 158
-138 71 -529 166 -829 203 -215 27 -448 9 -651 -50 -155 -45 -194 -58 -237
-81 -27 -14 -71 -37 -99 -52 -52 -27 -152 -112 -224 -189 -47 -51 -115 -139
-115 -149 0 -4 -16 -42 -36 -84 -19 -42 -40 -101 -46 -131 -6 -30 -16 -60 -22
-66 -6 -6 -63 -18 -126 -28 -63 -10 -137 -24 -165 -31 -199 -55 -247 -72 -305
-103 -195 -108 -327 -220 -416 -353 -58 -88 -78 -165 -78 -304 1 -131 17 -196
85 -341 41 -89 57 -112 135 -188 78 -78 100 -93 208 -145 191 -93 228 -108
271 -115 22 -3 65 -10 95 -15 152 -25 464 -1 548 43 17 9 37 16 44 16 7 0 30
9 51 20 20 11 43 20 51 20 7 0 27 -26 43 -57 53 -104 82 -141 189 -247 66 -65
124 -113 153 -127 25 -11 73 -34 106 -49 224 -105 385 -134 680 -124 194 6
236 11 345 41 52 14 117 29 145 34 47 8 74 17 220 75 33 13 83 30 110 39 28 9
79 34 115 55 98 60 162 90 192 90 24 0 34 -11 74 -80 28 -50 57 -86 74 -95 16
-8 37 -26 48 -39 18 -24 183 -119 272 -158 160 -69 334 -107 526 -115 144 -6
334 7 414 27 19 4 53 11 75 14 22 3 60 12 84 20 24 9 53 16 65 16 32 0 205 81
275 129 34 23 70 43 79 43 23 1 123 -11 197 -23 184 -30 731 -27 897 5 86 16
325 92 348 110 8 6 35 22 60 36 25 13 59 33 75 46 17 12 45 29 63 38 54 28
145 115 175 169 50 89 52 109 51 502 -1 279 -4 353 -18 415 -9 41 -23 109 -31
150 -38 191 -117 472 -161 568 -13 29 -24 59 -24 67 0 9 -9 34 -19 58 -11 23
-25 60 -31 82 -7 22 -19 47 -27 57 -8 9 -25 47 -38 85 -13 37 -48 124 -79 192
-31 69 -56 130 -56 136 0 6 -28 67 -62 136 -64 126 -98 202 -98 218 0 5 -6 14
-14 20 -8 6 -19 31 -25 56 -6 24 -16 47 -21 50 -9 6 -60 98 -60 110 -1 3 -9
25 -20 51 -11 25 -20 50 -20 54 0 5 -15 44 -34 87 -19 43 -38 92 -42 108 -8
33 -27 81 -82 199 -42 90 -144 206 -204 231 -34 14 -161 88 -223 130 -16 12
-61 36 -100 54 -38 18 -81 39 -95 47 -54 32 -148 69 -340 133 -52 17 -99 31
-105 30 -5 0 -35 -6 -65 -13z m-514 -593 c-11 -11 -19 6 -11 24 8 17 8 17 12
0 3 -10 2 -21 -1 -24z"/>
<path d="M6760 5456 c0 -3 9 -10 20 -16 11 -6 20 -8 20 -6 0 3 -9 10 -20 16
-11 6 -20 8 -20 6z"/>
<path d="M6070 4937 c0 -7 4 -17 9 -22 5 -6 16 -35 25 -65 36 -126 123 -213
296 -295 40 -20 206 -44 295 -45 55 0 262 37 310 56 36 14 119 66 150 94 17
15 41 33 53 40 13 6 22 14 19 16 -4 4 -139 -54 -181 -77 -40 -23 -192 -60
-245 -61 -123 -2 -189 55 -273 236 l-13 30 -3 -40 c-5 -55 16 -111 52 -140 23
-19 26 -24 11 -20 -30 8 -73 8 -137 0 -94 -11 -137 11 -210 109 -33 45 -73
107 -89 139 -21 41 -35 58 -49 58 -11 0 -20 -6 -20 -13z m495 -317 c4 -6 -1
-7 -11 -3 -11 4 -15 2 -11 -4 4 -6 29 -13 56 -17 74 -10 74 -26 -1 -26 -72 1
-189 29 -196 48 -5 15 153 17 163 2z"/>
<path d="M7375 4653 c-49 -88 -70 -155 -112 -353 -11 -54 -16 -141 -17 -311
l-2 -235 -100 -101 c-90 -92 -174 -203 -174 -230 0 -6 -11 -33 -24 -60 -24
-48 -54 -137 -75 -223 -19 -79 -21 -196 -4 -278 18 -90 24 -132 19 -132 -1 0
-20 26 -42 57 -75 110 -206 227 -301 270 -141 63 -194 73 -387 73 -223 0 -399
-27 -606 -92 -66 -21 -165 -66 -158 -73 1 -2 59 12 128 31 191 54 376 75 605
70 297 -6 392 -40 570 -205 93 -86 161 -179 252 -344 36 -67 72 -129 79 -137
7 -8 17 -35 24 -60 7 -24 20 -55 31 -68 10 -14 19 -30 19 -36 0 -6 12 -36 27
-66 14 -30 40 -97 57 -148 49 -146 67 -103 24 58 -11 41 -24 94 -29 118 -5 24
-34 96 -65 160 -31 64 -69 144 -85 178 -16 33 -44 81 -64 107 -19 25 -35 50
-35 56 0 6 11 18 25 27 17 11 25 25 25 45 0 31 -9 36 -28 17 -19 -19 -24 12
-17 99 3 43 5 118 5 166 -1 101 23 210 69 309 16 35 33 75 38 89 12 39 177
229 199 229 14 0 28 -44 39 -122 6 -39 11 -48 27 -48 22 0 22 19 -6 275 -35
312 -8 620 74 853 16 45 27 82 25 82 -2 0 -15 -21 -30 -47z"/>
</g>
</svg>
